{"title":"Geordie Shore S08E05 WEB-DL","uid":10831634,"size":479826559,"categoryP":"video","categoryS":"tv_shows","magnet":"?xt=urn:btih:cb2005b500edd1d71702812f305bb9cdfb798649&amp;dn=Geordie+Shore+S08E05+WEB-DL&amp;tr=udp%3A%2F%2Ftracker.openbittorrent.com%3A80&amp;tr=udp%3A%2F%2Fopen.demonii.com%3A1337&amp;tr=udp%3A%2F%2Ftracker.coppersurfer.tk%3A6969&amp;tr=udp%3A%2F%2Fexodus.desync.com%3A6969","seeders":1,"leechers":0,"uploader":"jmanwf","files":-1,"time":1408629410,"description":"Kyle starts to get settled into the house by spending some time with Holly\n\n\n\n\nFormat                                   : MPEG-4\nFormat profile                           : Base Media / Version 2\nCodec ID                                 : mp42\nFile size                                : 458 MiB\nDuration                                 : 42mn 23s\nOverall bit rate mode                    : Variable\nOverall bit rate                         : 1 509 Kbps\nEncoded date                             : UTC 2014-08-21 06:10:00\nTagged date                              : UTC 2014-08-21 06:32:51\nWriting application                      : HandBrake 0.9.9 2013052900\n\nVideo\nID                                       : 1\nFormat                                   : AVC\nFormat/Info                              : Advanced Video Codec\nFormat profile                           : &lt;a class=&quot;__cf_email__&quot; href=&quot;/cdn-cgi/l/email-protection&quot; data-cfemail=&quot;f5b8949c9bb5b9c1dbc5&quot;&gt;[email&amp;#160;protected]&lt;/a&gt;&lt;script cf-hash='f9e31' type=&quot;text/javascript&quot;&gt;\n/* &lt;![CDATA[ */!function(){try{var t=&quot;currentScript&quot;in document?document.currentScript:function(){for(var t=document.getElementsByTagName(&quot;script&quot;),e=t.length;e--;)if(t[e].getAttribute(&quot;cf-hash&quot;))return t[e]}();if(t&amp;&amp;t.previousSibling){var e,r,n,i,c=t.previousSibling,a=c.getAttribute(&quot;data-cfemail&quot;);if(a){for(e=&quot;&quot;,r=parseInt(a.substr(0,2),16),n=2;a.length-n;n+=2)i=parseInt(a.substr(n,2),16)^r,e+=String.fromCharCode(i);e=document.createTextNode(e),c.parentNode.replaceChild(e,c)}}}catch(u){}}();/* ]]&gt; */&lt;/script&gt;\nFormat settings, CABAC                   : Yes\nFormat settings, ReFrames                : 4 frames\nCodec ID                                 : avc1\nCodec ID/Info                            : Advanced Video Coding\nDuration                                 : 42mn 23s\nBit rate                                 : 1 344 Kbps\nWidth                                    : 852 pixels\nHeight                                   : 480 pixels\nDisplay aspect ratio                     : 16:9\nFrame rate mode                          : Variable\nFrame rate                               : 25.000 fps\nMinimum frame rate                       : 12.502 fps\nMaximum frame rate                       : 25.007 fps\nColor space                              : YUV\nChroma subsampling                       : 4:2:0\nBit depth                                : 8 bits\nScan type                                : Progressive\nBits/(Pixel*Frame)                       : 0.131\nStream size                              : 408 MiB (89%)\nWriting library                          : x264 core 130 r2273 b3065e6\n\nEncoded date                             : UTC 2014-08-21 06:10:00\nTagged date                              : UTC 2014-08-21 06:32:51\nColor primaries                          : BT.709\nTransfer characteristics                 : BT.709\nMatrix coefficients                      : BT.709\n\nAudio\nID                                       : 2\nFormat                                   : AAC\nFormat/Info                              : Advanced Audio Codec\nFormat profile                           : LC\nCodec ID                                 : 40\nDuration                                 : 42mn 23s\nBit rate mode                            : Variable\nBit rate                                 : 160 Kbps\nMaximum bit rate                         : 315 Kbps\nChannel(s)                               : 2 channels\nChannel positions                        : Front: L R\nSampling rate                            : 48.0 KHz\nCompression mode                         : Lossy\nStream size                              : 48.5 MiB (11%)\nLanguage                                 : English\nEncoded date                             : UTC 2014-08-21 06:10:00\nTagged date                              : UTC 2014-08-21 06:32:50\n\n","torrent":{"xt":"urn:btih:cb2005b500edd1d71702812f305bb9cdfb798649","amp;dn":"Geordie+Shore+S08E05+WEB-DL","amp;tr":["udp%3A%2F%2Ftracker.openbittorrent.com%3A80","udp%3A%2F%2Fopen.demonii.com%3A1337","udp%3A%2F%2Ftracker.coppersurfer.tk%3A6969","udp%3A%2F%2Fexodus.desync.com%3A6969"],"infoHash":"cb2005b500edd1d71702812f305bb9cdfb798649","infoHashBuffer":{"type":"Buffer","data":[203,32,5,181,0,237,209,215,23,2,129,47,48,91,185,205,251,121,134,73]},"announce":[],"urlList":[]}}